PathFileType	3	(X/Y/Z)	C:\Users\jcho911\Documents\Smart Splint MAP workflow\data\P09\mocap\P09EMGstatic01.trc
DataRate	CameraRate	NumFrames	NumMarkers	Units	OrigDataRate	OrigDataStartFrame	OrigNumFrames
200.0	200.0	5	37	mm	200.0	622	995	
Frame#	Time	LAS1			RAS1			LPS1			RPS1			RTH1			RTH2			RTH3			RLFC			RMFC			LTH1			LTH2			LTH3			LLFC			LMFC			LTB1			LTB2			LTB3			LLMAL			LMMAL			LToe			LMT1			LCAL			LMT5			RToe			RMT5			RMT1			RCAL			RTB1			RTB2			RTB3			RMMAL			RLMAL			T10			RACR1			CLAV			C7			LACR1			
		X1	Y1	Z1	X2	Y2	Z2	X3	Y3	Z3	X4	Y4	Z4	X5	Y5	Z5	X6	Y6	Z6	X7	Y7	Z7	X8	Y8	Z8	X9	Y9	Z9	X10	Y10	Z10	X11	Y11	Z11	X12	Y12	Z12	X13	Y13	Z13	X14	Y14	Z14	X15	Y15	Z15	X16	Y16	Z16	X17	Y17	Z17	X18	Y18	Z18	X19	Y19	Z19	X20	Y20	Z20	X21	Y21	Z21	X22	Y22	Z22	X23	Y23	Z23	X24	Y24	Z24	X25	Y25	Z25	X26	Y26	Z26	X27	Y27	Z27	X28	Y28	Z28	X29	Y29	Z29	X30	Y30	Z30	X31	Y31	Z31	X32	Y32	Z32	X33	Y33	Z33	X34	Y34	Z34	X35	Y35	Z35	X36	Y36	Z36	X37	Y37	Z37	
622	3.1	325.22214	1041.8433	-808.88531	591.4585	1032.4801	-811.39679	415.08493	1094.2142	-625.31091	510.64258	1093.1815	-623.57721	670.54846	781.86957	-720.20563	633.25238	681.55615	-793.49634	654.4859	611.29022	-687.67664	648.18445	525.36139	-694.54895	537.24121	511.19821	-720.98572	267.76907	685.96112	-734.95593	290.746	761.24219	-815.70428	330.17538	626.75653	-789.35052	294.08493	527.23474	-714.35217	395.39908	518.02655	-743.185	269.99118	317.97299	-683.64136	270.44608	402.79578	-646.99561	294.69394	223.85854	-618.90051	286.5239	89.623665	-640.90424	372.15149	90.435623	-681.54907	258.45685	29.823637	-851.11633	322.86282	24.313803	-817.96021	337.26483	40.640694	-588.57281	218.74564	27.660311	-768.76361	667.15314	33.446362	-841.33374	715.98499	29.881918	-768.98871	606.81738	25.271549	-809.4621	623.36041	48.244438	-579.67712	679.62177	326.77579	-623.43469	639.68817	403.68137	-719.35638	673.58154	205.97812	-659.13849	575.401	94.570038	-660.51355	671.07605	84.266945	-634.99701	458.74768	1334.9873	-604.6535	685.38812	1523.8507	-707.76733	452.71863	1470.187	-814.02087	470.28445	1588.7515	-650.57294	233.12038	1533.4623	-726.02417
623	3.105	325.24802	1041.8562	-808.86884	591.31799	1032.5795	-811.25977	415.08563	1094.2146	-625.31128	510.70804	1093.1724	-623.65509	670.57385	781.91254	-720.26984	633.24805	681.55725	-793.49078	654.46509	611.28949	-687.67773	648.22333	525.38397	-694.56256	537.22595	511.2384	-721.0531	267.80356	685.98224	-734.92792	290.73209	761.23621	-815.65961	330.13742	626.78064	-789.36444	294.04669	527.23639	-714.29102	395.4617	518.04742	-743.21619	270.05887	318.01212	-683.68262	270.42487	402.80743	-647.00201	294.69116	223.85904	-618.89893	286.54749	89.624596	-640.94086	372.16876	90.465752	-681.51196	258.44684	29.827372	-851.11945	322.86127	24.313488	-817.94641	337.25751	40.611965	-588.57245	218.72006	27.677649	-768.78357	667.15466	33.47298	-841.34216	715.96448	29.85088	-768.98254	606.78387	25.345596	-809.46753	623.34851	48.261879	-579.67767	679.73767	326.75876	-623.45551	639.70172	403.6879	-719.35876	673.55585	205.97345	-659.12183	575.41821	94.561531	-660.39893	671.07269	84.246353	-634.98523	458.74869	1335.038	-604.65295	685.34161	1523.7426	-707.83038	452.74219	1470.2008	-814.0061	470.31592	1588.752	-650.57928	233.09579	1533.5023	-726.05164
624	3.11	325.24814	1041.8525	-808.83777	591.30902	1032.5841	-811.24896	415.08496	1094.2357	-625.31848	510.70779	1093.1722	-623.65503	670.53119	781.89685	-720.34583	633.25787	681.55872	-793.52319	654.49109	611.31622	-687.65259	648.21655	525.43225	-694.56689	537.23877	511.23773	-721.02429	267.78055	686.00653	-734.87762	290.715	761.24231	-815.66827	330.14383	626.77557	-789.32825	294.0495	527.25641	-714.28595	395.4227	518.04852	-743.21667	269.96338	317.96732	-683.59021	270.45013	402.81259	-646.99738	294.71259	223.8553	-618.91895	286.53549	89.672356	-640.92615	372.18411	90.53537	-681.49347	258.42599	29.852829	-851.10913	322.86371	24.331633	-817.97717	337.2395	40.653553	-588.57861	218.68852	27.683331	-768.78381	667.13422	33.457623	-841.34088	715.96045	29.847956	-768.97552	606.81982	25.318832	-809.47687	623.36407	48.274811	-579.65967	679.73383	326.78195	-623.46393	639.71643	403.69064	-719.38501	673.55072	205.9735	-659.14282	575.42383	94.542419	-660.41516	671.05841	84.276543	-635.03094	458.74857	1335.0094	-604.65265	685.35962	1523.8276	-707.79803	452.75238	1470.2307	-813.99799	470.30774	1588.776	-650.60754	233.08116	1533.5098	-726.04706
625	3.115	325.27975	1041.849	-808.84308	591.28992	1032.5889	-811.28192	415.08554	1094.2393	-625.2818	510.66901	1093.2065	-623.58472	670.53912	781.89899	-720.35162	633.26202	681.57904	-793.53961	654.46313	611.3147	-687.66107	648.16046	525.35431	-694.6543	537.20959	511.24017	-721.09143	267.7804	686.00647	-734.87756	290.70084	761.24768	-815.63892	330.13977	626.7879	-789.31476	294.04462	527.21509	-714.27936	395.48303	518.05005	-743.31287	269.95462	318.02081	-683.617	270.40286	402.80896	-646.97845	294.70486	223.87628	-618.92578	286.51468	89.676994	-640.92902	372.11438	90.520317	-681.5567	258.43338	29.846525	-851.10437	322.8652	24.335661	-817.97388	337.21826	40.651459	-588.60809	218.7075	27.69544	-768.77704	667.12561	33.465172	-841.33539	715.94824	29.889202	-769.01349	606.849	25.295324	-809.44952	623.35132	48.287552	-579.66479	679.6308	326.77429	-623.43616	639.71582	403.65814	-719.46631	673.52905	205.97034	-659.16711	575.38507	94.542381	-660.50641	671.06757	84.288116	-635.04529	458.74881	1335.0093	-604.6532	685.39819	1523.8339	-707.78265	452.77469	1470.2103	-814.0401	470.30078	1588.762	-650.60559	233.08064	1533.472	-726.03912
626	3.12	325.2634	1041.8186	-808.78845	591.31915	1032.5824	-811.25714	415.08221	1094.2174	-625.27966	510.72861	1093.2102	-623.57928	670.55286	781.88239	-720.36237	633.24182	681.54968	-793.5249	654.47644	611.31366	-687.69458	648.19617	525.38989	-694.57117	537.21747	511.24222	-721.06927	267.77899	685.98999	-734.87097	290.73276	761.23175	-815.64178	330.13782	626.78821	-789.31683	294.04529	527.21472	-714.27942	395.40192	518.04163	-743.24194	269.84583	317.9989	-683.58783	270.43015	402.78015	-646.95813	294.68036	223.87939	-618.90405	286.50824	89.692253	-640.90948	372.15851	90.531219	-681.492	258.42117	29.846426	-851.1228	322.90427	24.347851	-818.02234	337.24222	40.652454	-588.58087	218.70657	27.708897	-768.76782	667.12646	33.470306	-841.33569	715.92914	29.882915	-769.0155	606.85577	25.257553	-809.46021	623.33673	48.277466	-579.67438	679.5863	326.75604	-623.43567	639.69885	403.70801	-719.38409	673.56818	206.01012	-659.18085	575.42017	94.526031	-660.43994	671.09625	84.273491	-635.02466	458.74963	1335.0103	-604.65179	685.43524	1523.8864	-707.79968	452.77637	1470.1915	-814.0144	470.30011	1588.7592	-650.60571	233.07396	1533.4556	-726.04163
